<svg width="69" height="34" viewBox="0 0 69 34" fill="none" xmlns="http://www.w3.org/2000/svg">
<path d="M35.4466 0.702047C35.0686 0.000907107 34.2311 -0.104264 33.2665 0.274352C32.302 0.652967 31.3113 0.901872 30.3565 1.23141C30.0222 1.35201 29.6957 1.49605 29.3789 1.66261C28.9194 1.89749 28.4795 2.18846 28.0037 2.38829C27.0424 2.80547 26.0388 3.15604 25.0579 3.55919C24.8591 3.63982 24.5463 3.79758 24.5365 3.93781C24.4615 5.0386 23.4188 5.69066 23.3568 6.74237C23.1385 10.3673 23.057 14.0062 22.7703 17.61C22.5128 20.8703 22.1185 24.1201 21.6493 27.3559C21.5441 28.4084 21.0584 29.3742 20.2969 30.0447C20.0579 29.3682 19.9013 28.6612 19.8309 27.9413C19.6582 25.8589 19.4594 23.7731 19.4106 21.6837C19.3617 19.6854 19.4497 17.6766 19.5474 15.6784C19.6713 13.27 19.8244 10.8651 20.0558 8.47068C20.147 7.54868 19.6973 6.45841 18.8892 6.21651C18.2668 6.03071 17.9116 6.43387 17.6574 7.67839C17.6129 7.84661 17.5845 8.01929 17.5727 8.19373C17.5238 9.81336 17.4912 11.44 17.426 13.0596C17.3869 14.0307 17.2957 14.9948 17.2272 15.9624L16.9665 15.9939C16.8232 15.3979 16.7026 14.795 16.5396 14.206C16.028 12.341 15.3665 10.6162 13.3363 10.0938C12.4435 9.86594 11.0292 10.2656 10.7294 10.9597C10.4226 11.5757 10.182 12.2273 10.0125 12.9019C9.61289 14.7145 9.31473 16.5513 9.11959 18.4023C8.92081 20.9405 9.16847 23.4751 10.1787 25.8204C10.3105 26.0939 10.495 26.3341 10.7197 26.5251C10.9444 26.7161 11.2043 26.8535 11.4822 26.9282C12.1314 27.0366 12.7954 26.9767 13.4188 26.7536C14.0423 26.5304 14.6072 26.1504 15.0667 25.6451C16.6146 23.9308 16.9568 21.7362 16.9633 19.4435V18.2305H17.2305C17.2305 20.1411 17.1784 22.0518 17.2305 23.9589C17.3087 26.3322 17.3217 28.7231 18.2277 30.9703C18.723 32.2008 19.7527 32.7512 20.9193 32.3094C21.8988 31.9317 22.7175 31.1842 23.2232 30.206C24.2008 28.4251 24.5267 26.4479 24.6571 24.4391C24.9601 19.8817 25.1915 15.3243 25.4652 10.7669C25.5271 9.75376 25.7357 8.73711 25.7064 7.72747C25.6738 6.56007 25.9768 5.93606 27.1206 5.59951C28.8086 5.1052 29.1345 5.24894 29.1573 7.15954C29.1573 7.27523 29.1573 7.39092 29.1573 7.51011C29.2127 8.81073 29.0237 10.0903 28.9292 11.3664C28.7044 14.4269 28.7239 17.5084 28.6816 20.5864C28.6816 21.3331 28.8543 22.0833 28.8608 22.837C28.8901 25.0176 28.8315 27.2016 28.8999 29.3822C28.9639 30.1926 29.134 30.9892 29.405 31.7485C29.6266 32.4742 30.0567 32.5794 30.6824 32.1692C31.5655 31.5838 31.8295 30.9352 31.66 29.8309C31.6235 29.5263 31.605 29.2195 31.6046 28.9124C31.4971 24.674 31.2559 20.4426 31.3048 16.1937C31.3472 12.5127 31.3048 8.83176 31.5329 5.15779C31.5136 4.89929 31.5885 4.64285 31.7418 4.44267C31.895 4.24248 32.1146 4.11424 32.3541 4.08505C33.1514 3.92888 33.936 3.70498 34.7004 3.41546C34.9294 3.30681 35.1337 3.1458 35.299 2.94362C35.4644 2.74145 35.5868 2.50297 35.6578 2.24475C35.7289 1.98652 35.7467 1.71476 35.7103 1.44835C35.6738 1.18194 35.5838 0.927272 35.4466 0.702047ZM14.6594 17.8449C14.4215 19.5978 14.1445 21.3296 13.8056 23.0544C13.6673 23.6148 13.4196 24.1371 13.0789 24.5864C12.6325 25.2209 12.186 25.1227 12.0101 24.341C11.707 22.9913 11.4952 21.617 11.1986 20.0009C11.5962 17.9641 12.0231 15.731 12.4695 13.5014C12.5341 13.2468 12.6449 13.0085 12.7954 12.8002C13.0463 12.4076 13.3526 12.3129 13.6101 12.8002C14.4573 14.3497 14.9103 16.0255 14.6594 17.8449Z" fill="#F1F1F1"/>
<path d="M11.4756 3.09992C10.5501 3.40491 9.66049 3.85715 8.74805 4.20772C8.48987 4.30326 8.26683 4.48507 8.11148 4.72661C7.95613 4.96816 7.8766 5.2568 7.8845 5.5504C7.78022 7.20509 7.62706 8.85627 7.60751 10.511C7.56515 14.0552 7.50649 17.5995 7.6238 21.1367C7.72156 24.1832 8.05721 27.2191 8.27554 30.2516C8.31795 30.7949 8.16259 31.3347 7.84221 31.7572C7.52183 32.1797 7.06148 32.4518 6.55821 32.5162C5.76309 32.6389 5.53172 32.064 5.4861 31.4295C5.35249 29.6346 5.28406 27.8326 5.16023 25.4698C5.16023 24.3935 5.16023 22.7459 5.16023 21.0947C5.19716 16.4204 5.23735 11.7461 5.2808 7.07187C5.2808 5.77827 5.15045 5.62402 3.97732 5.86241C3.32558 5.99562 2.67384 6.24453 2.0221 6.43734C1.37036 6.63015 -0.0960539 5.38563 0.00496576 4.66346C0.0365991 4.51406 0.0981939 4.37391 0.185441 4.2528C0.272688 4.13169 0.383479 4.03255 0.510064 3.96232C1.43879 3.57318 2.39685 3.26118 3.34187 2.91061C4.59647 2.4759 5.86085 2.02717 7.10567 1.58896C7.35985 1.49781 7.63032 1.45224 7.88776 1.3681C9.11954 0.964944 10.3676 0.600351 11.5799 0.134093C12.3359 -0.15688 12.7204 0.00087656 12.8377 0.852762C13.03 2.19544 12.6617 2.71078 11.4756 3.09992Z" fill="#F1F1F1"/>
<path d="M61.5195 6.11128C61.2327 8.32338 60.8905 10.532 60.682 12.7721C60.5451 14.2375 60.5973 15.7274 60.5647 17.2068C60.5093 19.8431 60.5647 22.4899 60.3692 25.1192C60.1932 27.6819 57.8925 29.1578 55.6049 28.3514C55.2399 28.2391 54.9142 28.0124 54.6693 27.7003C54.4244 27.3881 54.2714 27.0046 54.2298 26.5986C53.8042 24.1121 53.736 21.5701 54.0277 19.0613C54.3112 16.681 54.2917 14.255 54.4188 11.8536C54.51 10.1428 54.6078 8.43206 54.7446 6.72478C54.8 5.98858 55.1943 5.78175 55.82 6.08324C57.2538 6.78438 57.3353 6.99121 57.1528 8.69148C56.8628 11.3768 56.4718 14.0587 56.387 16.7546C56.299 19.6187 56.5109 22.4934 56.6217 25.3611C56.684 25.6554 56.7943 25.9355 56.9475 26.1884C57.1332 25.9469 57.2979 25.6875 57.4396 25.4137C58.1817 23.5722 58.5856 21.5937 58.629 19.5872C58.7137 17.1963 58.7919 14.8019 58.9256 12.4145C59.0103 10.9071 59.2123 9.41365 59.3166 7.90971C59.3915 6.78788 59.385 5.65905 59.4306 4.53372C59.4306 4.18315 59.4698 3.56965 59.5675 3.55212C59.9553 3.475 60.506 3.43293 60.7537 3.67131C61.0748 4.07396 61.2987 4.55561 61.4054 5.0736C61.4593 5.42135 61.4648 5.77581 61.4217 6.12531L61.5195 6.11128Z" fill="#F1F1F1"/>
<path d="M68.7994 23.5065C68.2845 24.3479 67.6719 25.1191 67.1407 25.9605C66.7758 26.5284 66.489 27.1454 66.1631 27.7484C65.701 28.6923 65.1953 29.6108 64.6478 30.5004C64.3228 30.9136 63.8887 31.2107 63.403 31.3523C62.8327 31.5381 62.3993 31.2331 62.3179 30.5319C62.2292 30.136 62.1875 29.7296 62.194 29.3225C62.6763 25.8168 62.0604 22.3111 62.2201 18.8054C62.3439 16.1375 62.4971 13.4732 62.6046 10.8089C62.7122 8.14453 62.7154 5.4171 62.1223 2.74575C61.9855 2.13226 62.1973 1.34347 62.4482 0.75101C62.559 0.488083 63.1977 0.305786 63.5529 0.368889C63.9242 0.403378 64.2697 0.58771 64.52 0.884878C64.7702 1.18205 64.9067 1.57005 64.902 1.97099C64.9346 3.48195 64.902 4.99641 64.902 6.50737C64.902 6.62306 64.902 6.73874 64.8824 6.85794H64.9313C64.7749 11.6514 64.6142 16.4425 64.449 21.2313C64.4295 21.8097 64.2405 22.3777 64.234 22.9526C64.2836 23.3281 64.3858 23.6933 64.537 24.0359C64.8371 23.9055 65.1147 23.7218 65.3582 23.4925C65.759 22.9456 66.0458 22.3111 66.4238 21.7396C66.9289 20.9824 67.5774 20.8141 68.1672 21.2313C68.9232 21.7852 69.2393 22.7878 68.7994 23.5065Z" fill="#F1F1F1"/>
<path d="M52.4864 31.2682C49.7751 32.5513 47.1421 29.8659 46.9238 27.3453C46.7413 25.2103 46.7315 23.0578 46.6468 20.9159C46.6492 20.5377 46.6318 20.1596 46.5946 19.7835C46.1482 16.8282 46.4056 13.8764 46.7739 10.9527C46.9277 9.86251 47.3408 8.83362 47.9731 7.9658C48.9916 6.68546 50.1066 5.49767 51.3067 4.41453C51.4764 4.24517 51.683 4.1244 51.9074 4.0633C52.1318 4.00221 52.3669 4.00274 52.591 4.06486C52.8152 4.12699 53.0213 4.2487 53.1903 4.41883C53.3594 4.58896 53.486 4.80206 53.5585 5.03855C53.7214 5.61699 53.6791 6.0552 53.0371 6.37071C52.4668 6.65117 51.9976 7.18053 51.5022 7.61874C51.2513 7.84311 51.0754 8.17264 50.8049 8.34793C48.8497 9.61348 48.9442 11.6398 49.0354 13.6731C49.0745 14.5039 49.1234 15.3348 49.1788 16.411C49.8859 16.0605 50.4366 15.8396 50.9385 15.5276C51.6945 15.0578 52.3267 15.3032 52.5516 16.2077C52.8774 17.4733 52.5515 17.9781 51.4306 18.3777C50.6646 18.6606 49.9267 19.0247 49.2277 19.4645C49.1071 19.5652 49.0091 19.6937 48.9409 19.8405C48.8727 19.9873 48.8359 20.1487 48.8334 20.3129C48.9083 22.1954 49.0354 24.078 49.1592 25.9571C49.182 26.3637 49.2309 26.7704 49.2766 27.1735C49.4199 28.3865 49.71 28.6284 50.831 28.362C51.2803 28.2387 51.7169 28.0672 52.1344 27.8501C52.7243 27.5767 53.1349 27.8081 53.4379 28.3409C54.0897 29.4943 53.6204 30.7283 52.4864 31.2682Z" fill="#F1F1F1"/>
<path d="M43.1697 3.53451C43.1176 5.63793 42.9058 7.74134 43.0687 9.79568C43.2773 12.4495 43.7498 15.0858 44.1832 17.7151C44.4308 19.2295 44.949 20.7019 45.1217 22.2199C45.4458 24.6667 45.6113 27.1348 45.617 29.6064C45.5746 32.0849 44.7241 33.3329 42.4561 33.9149C42.079 34.024 41.6822 34.0283 41.3032 33.9272C40.9241 33.8261 40.5752 33.623 40.2891 33.337C40.003 33.051 39.7893 32.6914 39.6678 32.2921C39.5464 31.8928 39.5213 31.4668 39.5949 31.0542C39.6471 30.7037 40.1033 30.2935 40.4618 30.1007C40.5644 30.0398 40.678 30.0033 40.7949 29.9938C40.9118 29.9842 41.0292 30.0018 41.1393 30.0454C41.2493 30.0889 41.3493 30.1574 41.4326 30.2462C41.5158 30.335 41.5804 30.442 41.6218 30.5599C41.6539 30.6719 41.7011 30.7783 41.762 30.8755C41.9025 31.0342 42.0504 31.1851 42.2052 31.3277C42.3518 31.1419 42.5766 30.9771 42.6288 30.7633C42.8014 30.0607 42.9353 29.3478 43.0296 28.6283C43.1208 27.9272 43.1371 27.226 43.1893 26.5249C43.0459 25.1226 42.8015 23.6993 42.7819 22.283C42.7559 20.1059 42.241 18.0481 41.8369 15.9412C41.3774 13.5643 41.2047 11.1243 40.8984 8.71242C40.7876 7.82198 40.5725 6.93503 40.553 6.04108C40.5222 5.27337 40.5935 4.50486 40.7648 3.75887C40.9977 2.92438 41.2752 2.10502 41.5958 1.30488C42.052 0.0147837 43.9518 -0.384866 45.0435 0.603741C45.286 0.797122 45.4955 1.03436 45.6626 1.30488C45.8647 1.65545 46.184 2.35659 46.0863 2.45475C45.6763 2.78761 45.2071 3.02627 44.7078 3.15589C44.4928 3.21899 44.2027 2.93503 43.9486 2.93503C43.7029 2.96629 43.4681 3.06134 43.2642 3.21198C43.1958 3.25054 43.173 3.42232 43.1697 3.53451Z" fill="#F1F1F1"/>
</svg>
